<?xml version="1.0" encoding="UTF-8"?>
<!DOCTYPE svg PUBLIC "-//W3C//DTD SVG 1.1//EN" "http://www.w3.org/Graphics/SVG/1.1/DTD/svg11.dtd">
<!-- Creator: CorelDRAW X8 -->
<svg xmlns="http://www.w3.org/2000/svg" xml:space="preserve" width="148.566mm" height="38.5147mm" version="1.1" style="shape-rendering:geometricPrecision; text-rendering:geometricPrecision; image-rendering:optimizeQuality; fill-rule:evenodd; clip-rule:evenodd"
viewBox="0 0 46142 11962"
 xmlns:xlink="http://www.w3.org/1999/xlink">
 <defs>
  <style type="text/css">
   <![CDATA[
    .fil0 {fill:#26448C;fill-rule:nonzero}
   ]]>
  </style>
 </defs>
 <g id="Capa_x0020_1">
  <metadata id="CorelCorpID_0Corel-Layer"/>
  <g id="_2654307645984">
   <path class="fil0" d="M46063 5220c-62,-281 -159,-550 -290,-799 -111,-213 -251,-419 -415,-611 -125,-150 -274,-293 -483,-463l-128 -96c-22,-18 -46,-34 -70,-50l-68 -44c-39,-28 -80,-51 -122,-74l-168 -88c-193,-94 -395,-167 -600,-218 -208,-53 -412,-87 -605,-104 -388,-33 -783,-14 -1175,58 -202,38 -384,83 -552,138 -76,22 -150,50 -222,76l-45 17c-29,11 -58,23 -86,35l-57 24c-39,16 -78,33 -115,51l-125 60c-28,14 -55,29 -83,44l-279 163 -333 242 -101 87c-35,29 -69,61 -102,94l-32 31c-22,21 -43,41 -66,65l-50 54c-43,47 -88,96 -126,147 -127,150 -227,315 -302,445l-59 117 -107 244 -61 185c-4,15 -7,29 -11,44l-35 146c-6,29 -11,58 -15,87l-17 103c-2,15 -3,30 -4,45l-7 88 -7 246 11 143 23 178c2,13 4,27 6,42l20 89c6,27 13,55 20,84l39 127c3,12 7,25 12,39l133 307c6,11 12,22 18,33l62 107c13,21 26,41 40,60l17 27c32,49 67,92 101,135l24 31c160,194 354,356 579,479 193,106 398,174 609,203 190,26 369,22 531,-11l18 -3c13,-2 27,-4 48,-9l193 -56c51,-18 98,-36 144,-56l150 -75 38 -24c360,-71 620,-401 620,-788 0,-443 -341,-803 -761,-803 -419,0 -761,360 -761,803 0,275 136,529 350,674l-27 4c-10,1 -19,1 -29,2l-22 1c-132,10 -276,-2 -429,-36 -165,-39 -322,-106 -468,-200 -171,-112 -316,-248 -431,-406l-24 -34c-23,-32 -46,-65 -67,-102l-16 -27c-9,-15 -18,-29 -26,-43l-31 -61 -119 -298 -58 -265 -19 -278 21 -261c1,-10 2,-20 3,-27l18 -89c4,-20 8,-39 11,-56l34 -118c2,-9 5,-18 7,-26l48 -131 40 -89 105 -203c286,-482 769,-888 1361,-1144 31,-15 62,-28 94,-40l57 -23c23,-9 46,-19 70,-27l52 -18c60,-20 119,-41 181,-58 147,-45 306,-82 483,-112 339,-57 680,-70 1014,-37 160,15 331,46 506,91 165,42 327,102 482,179l137 72c28,16 57,32 86,52l55 37c17,11 34,22 51,36l108 82c124,102 268,227 391,375 133,157 241,314 330,482 103,195 180,406 229,625 54,239 76,490 64,750 0,46 -5,93 -9,139l-6 61c-4,43 -11,87 -18,132 -3,24 -7,48 -10,70 -26,132 -56,274 -102,415 -38,132 -90,261 -154,412 -63,132 -132,272 -215,404 -69,117 -154,239 -266,383l-43 53c-36,44 -72,88 -111,129l-30 33c-17,19 -34,38 -51,55l-88 88c-25,26 -52,50 -86,81l-35 31c-18,17 -37,34 -56,50l-235 193c-21,17 -42,35 -64,51l-217 163c-31,23 -62,46 -96,68l-218 146c-46,30 -93,57 -140,85 -29,17 -57,33 -85,51 -62,38 -126,71 -193,106l-156 80c-24,13 -49,23 -73,34 -15,7 -31,13 -45,20l-123 54c-40,18 -79,36 -121,51l-195 72 -318 102c-31,10 -63,18 -95,26l-167 41c-351,82 -723,142 -1105,177 -61,7 -122,11 -183,16 -34,2 -69,4 -102,7l-143 11 -729 26c-97,3 -195,4 -294,4l-294 2 -440 -11c-31,-1 -61,-3 -92,-5l-347 -24c-62,-5 -124,-12 -186,-19l-108 -12c-144,-13 -291,-35 -433,-56l-153 -23c-63,-8 -126,-20 -188,-32 -35,-6 -70,-12 -103,-18 -35,-7 -70,-13 -105,-19 -62,-11 -125,-22 -188,-36l-125 -26c-150,-32 -306,-64 -458,-102 -207,-47 -412,-100 -592,-148 18,-4 37,-9 55,-14l42 -10c123,-34 223,-69 313,-107 107,-44 207,-97 292,-145 81,-49 176,-109 261,-178 318,-243 570,-578 709,-943 63,-166 105,-341 122,-518 15,-150 13,-308 -5,-468 -13,-124 -41,-253 -90,-419l-32 -96c-6,-17 -12,-35 -20,-53l-19 -47c-11,-30 -25,-58 -38,-86l-55 -107c-67,-121 -145,-235 -232,-338 -88,-105 -180,-200 -273,-282 -186,-164 -394,-303 -617,-414 -115,-58 -223,-103 -327,-139 -45,-17 -90,-30 -136,-44l-31 -10c-18,-5 -37,-10 -55,-14l-41 -10c-25,-7 -49,-13 -74,-17l-84 -17c-18,-3 -37,-6 -55,-9l-325 -28 -206 9c-28,1 -56,5 -85,9l-26 4c-18,2 -37,4 -57,8l-44 9c-39,8 -78,16 -113,26 -116,29 -224,76 -311,117l-102 54 -195 137c-7,6 -14,12 -21,18l-68 62c-14,13 -26,27 -39,41l-42 44 -138 189 -87 165 -84 244 -43 309c0,15 0,30 0,45l0 21c-1,36 2,72 6,108l2 25c15,160 60,317 133,465 63,128 145,241 243,336 90,86 183,153 286,202 8,5 16,9 27,13l119 46c33,10 64,19 96,27l70 13 56 7c215,102 467,30 603,-175 154,-232 100,-554 -120,-717 -106,-79 -235,-110 -363,-88 -131,23 -246,99 -322,214 -84,128 -108,287 -70,432 -65,-43 -129,-99 -190,-169 -69,-80 -125,-171 -166,-272 -49,-118 -76,-240 -81,-360l-1 -25c0,-25 -1,-50 1,-76l0 -21c1,-10 1,-20 2,-29l6 -54 63 -256 70 -150 133 -185 219 -188 162 -88c301,-134 676,-157 1056,-65 20,4 40,9 69,17l28 8c14,4 29,8 42,12l34 11c36,11 72,23 109,38 89,32 180,72 279,124 189,97 364,218 521,359 75,67 150,145 223,234 69,82 130,172 182,268l45 88c8,18 17,36 25,57l16 40c4,11 9,22 13,36l27 81c28,97 58,213 71,333 15,127 16,246 5,363 -13,136 -44,269 -92,397 -52,139 -124,272 -216,398 -15,22 -33,43 -50,64l-23 29c-17,21 -35,40 -53,60l-28 30c-57,57 -119,116 -188,170 -67,55 -143,104 -213,148 -75,43 -156,87 -241,123 -73,32 -156,62 -259,92l-40 10c-32,9 -64,17 -98,23l-27 6c-14,3 -29,6 -42,8l-74 12c-21,3 -42,5 -69,8l-27 3c-15,1 -31,3 -45,4l-183 9c-17,1 -33,2 -49,2l-160 0c-24,1 -48,1 -74,-1l-158 -8c-34,-2 -67,-6 -100,-10l-60 -6c-43,-4 -86,-11 -130,-18l-106 -18c-9,-2 -18,-4 -33,-8l-80 -25c-45,-13 -90,-27 -134,-42 -278,-88 -555,-177 -829,-266l-290 -94c-332,-108 -664,-212 -989,-315l-109 -35c-152,-48 -304,-97 -455,-146 -571,-183 -1111,-357 -1649,-505 -323,-90 -664,-173 -1011,-246 -308,-63 -628,-113 -979,-152 -658,-62 -1261,-43 -1792,57 -291,55 -542,127 -768,223 -255,107 -464,243 -622,403 -88,90 -160,185 -211,283 -51,96 -90,201 -114,316l-13 73c-3,19 -5,37 -6,55l-2 23c-5,47 -6,96 -3,153 5,92 21,184 48,273 47,160 124,300 222,403 87,93 193,155 297,174 72,14 142,11 212,-8 21,-5 37,-12 54,-18 53,-23 51,-57 45,-74 -14,-50 -66,-39 -84,-36 -9,2 -22,5 -39,7 -39,6 -93,11 -158,-6 -44,-11 -129,-45 -214,-144 -76,-88 -137,-211 -172,-346 -20,-76 -31,-155 -32,-232 -1,-47 1,-87 6,-124l3 -27c2,-12 3,-25 6,-38l13 -67c24,-92 58,-179 102,-256 46,-79 107,-157 184,-230 142,-135 331,-249 561,-339 210,-81 454,-144 727,-187 509,-82 1087,-85 1718,-9 341,46 651,102 946,171 339,79 670,168 986,263 116,35 234,73 351,111l12 3c93,46 166,88 231,131l116 44c20,7 38,15 57,23l83 37c11,4 23,9 34,15l77 39c31,16 62,32 93,51l41 25c23,13 46,26 68,40l108 72c17,11 32,22 49,35l103 76c10,8 20,16 30,24l163 137c13,11 26,22 39,35l42 42c8,8 16,17 24,26l16 17c18,20 36,40 53,61l20 25c55,70 96,129 131,186 37,59 68,121 103,193 32,74 57,136 76,201 22,67 37,135 49,196l6 37c3,21 6,42 8,62l3 30c3,22 5,44 5,68 6,124 -4,245 -29,359 -23,106 -60,207 -109,300 -42,81 -94,157 -158,233 -58,71 -127,131 -185,179l-55 42c-7,6 -14,11 -22,16l-29 19c-12,9 -25,16 -38,23l-66 36c-74,37 -152,66 -231,86 -84,23 -166,38 -244,45 -160,17 -325,11 -489,-16 -86,-14 -163,-31 -235,-53 -29,-8 -58,-17 -86,-27l-26 -9c-12,-4 -23,-8 -34,-13l-26 -10c-15,-6 -31,-12 -48,-20 -284,-122 -517,-316 -654,-545l-26 -46 -87 -223 -27 -205 2 -67 18 -130 35 -122 51 -113c4,-7 8,-13 12,-20l9 -15c9,-17 20,-32 31,-47l11 -16c54,-75 123,-140 203,-193 69,-45 143,-77 220,-96 58,-13 116,-20 171,-19 -79,79 -127,190 -126,308 0,112 42,217 117,297 76,79 176,123 284,123 0,0 1,0 1,0 221,-1 400,-191 400,-423 -1,-202 -137,-373 -324,-412l-92 -48c-22,-9 -46,-18 -71,-27l-103 -29c-7,-1 -15,-3 -28,-5 -83,-16 -174,-18 -271,-4 -106,15 -210,50 -307,104 -113,62 -211,144 -292,244l-11 14c-18,22 -35,45 -50,68l-9 13c-7,10 -14,20 -21,32l-76 147 -64 201 -30 232 8 164 36 191 30 94 92 203c36,63 87,145 149,219 20,26 42,50 64,74l27 28c10,11 22,22 33,33l14 14c17,16 34,32 52,46l38 33 181 132 136 78c14,8 28,15 43,23l60 28c19,10 39,18 65,29l20 8c15,7 30,13 45,18l23 9c36,13 72,26 108,37 85,27 176,49 276,67 129,23 260,35 390,35 64,0 129,-3 193,-9 97,-8 198,-26 301,-53 102,-26 203,-63 299,-110l83 -44c21,-12 42,-24 62,-37l33 -22c13,-9 25,-17 36,-26l64 -49c103,-84 177,-155 239,-231 81,-96 151,-199 206,-305 65,-125 113,-259 143,-399 66,-307 45,-648 -58,-959 -27,-87 -63,-172 -96,-245 -34,-71 -77,-155 -127,-233 -43,-70 -93,-140 -160,-224l-21 -24c-23,-27 -46,-54 -70,-79l-16 -16c-10,-12 -21,-23 -33,-35l-38 -37c57,19 114,39 172,59l136 46c315,107 632,214 953,326l267 93c280,97 562,194 847,291 344,118 717,240 1142,373 395,119 781,235 1170,331 157,43 318,79 474,115l120 28c65,15 131,28 197,41 35,7 70,13 105,21 35,7 70,14 105,21 66,13 131,26 197,37l152 25c149,25 302,50 455,67l106 14c66,8 132,17 199,24l359 31c33,3 66,6 100,7l459 19 300 4c100,2 200,2 300,1l301 -2 598 -21c35,-3 70,-5 104,-6 65,-4 130,-8 194,-13 408,-32 805,-89 1181,-171l179 -42c38,-8 75,-17 111,-28l286 -84 275 -98c48,-16 94,-35 140,-55l135 -58c15,-6 31,-13 46,-19 30,-13 60,-25 89,-40l164 -82c74,-37 151,-75 224,-119 28,-16 57,-33 85,-49 55,-31 110,-62 163,-96l236 -154c38,-23 75,-50 119,-82l225 -163c24,-18 48,-38 72,-57l252 -201c23,-20 47,-41 71,-62l39 -34c35,-31 69,-61 101,-93l101 -98c22,-22 43,-45 64,-68l31 -33c49,-51 95,-105 138,-157l46 -55c133,-166 234,-308 318,-447 103,-161 187,-329 257,-474 64,-144 136,-315 190,-490 205,-629 244,-1314 109,-1928z"/>
   <path class="fil0" d="M22371 8863c-1,-18 -3,-36 -6,-54l-13 -77c-25,-112 -63,-217 -114,-313 -52,-98 -123,-193 -211,-283 -158,-160 -368,-296 -622,-403 -226,-96 -478,-168 -769,-223 -531,-100 -1133,-119 -1792,-57 -351,39 -670,89 -978,153 -348,72 -688,155 -1011,245 -539,148 -1079,322 -1650,506 -151,48 -302,97 -455,145l-101 32c-327,104 -662,209 -996,318l-286 93c-276,89 -553,179 -833,268 -45,14 -90,28 -135,42l-85 26c-9,2 -18,4 -28,6l-106 18c-43,7 -86,14 -131,18l-58 6c-33,4 -67,8 -99,10l-161 8c-24,2 -48,2 -75,1l-158 0c-16,0 -32,-1 -48,-2l-182 -9c-16,-1 -31,-3 -47,-4l-32 -4c-21,-2 -42,-4 -64,-8l-72 -10c-15,-3 -29,-6 -43,-9l-28 -6c-33,-6 -65,-14 -97,-23l-38 -9c-105,-31 -188,-61 -262,-94 -84,-35 -165,-79 -239,-121 -72,-45 -147,-94 -215,-150 -68,-52 -131,-112 -185,-167l-31 -33c-18,-19 -35,-38 -51,-58l-24 -29c-17,-21 -35,-42 -51,-67 -91,-124 -163,-257 -215,-396 -48,-128 -79,-261 -92,-397 -12,-117 -10,-236 5,-364 12,-119 43,-235 71,-330l27 -85c4,-12 8,-23 13,-35l17 -41c7,-19 15,-37 24,-55l45 -88c52,-96 113,-186 182,-268 72,-88 148,-167 223,-235 156,-140 331,-261 520,-358 100,-52 191,-92 281,-125 36,-14 72,-26 109,-37l32 -11c14,-4 28,-8 42,-12l38 -10c19,-6 39,-11 61,-16 379,-91 754,-68 1053,66l146 78 155 115 168 193 115 221 47 155 24 157c1,11 1,21 1,31l1 22c2,25 1,50 0,75l0 24c-5,121 -32,243 -81,361 -41,101 -97,192 -166,272 -61,69 -124,126 -190,169 37,-145 14,-304 -70,-432 -76,-115 -191,-191 -322,-214 -129,-22 -258,9 -364,88 -219,163 -273,485 -119,717 136,205 388,277 603,175l129 -20c29,-8 60,-17 93,-27l121 -47c8,-3 16,-7 24,-11l9 -5c95,-45 188,-112 277,-198 99,-95 180,-208 244,-336 73,-148 117,-305 133,-466l2 -24c3,-36 6,-71 6,-107l0 -21c0,-15 0,-31 -1,-52l-4 -71 -16 -131 -53 -208 -86 -206 -56 -100 -119 -163c-6,-7 -11,-15 -19,-24l-40 -42c-13,-14 -26,-28 -47,-49l-60 -54c-7,-6 -14,-12 -23,-19l-95 -73 -207 -121c-81,-37 -188,-84 -301,-112 -39,-11 -77,-19 -116,-27l-47 -9c-18,-4 -36,-6 -54,-8l-27 -4c-28,-4 -56,-8 -84,-9l-209 -9 -126 6 -196 22c-18,3 -37,6 -57,9l-82 17c-25,4 -50,10 -75,17l-40 10c-19,4 -37,9 -56,15l-31 9c-45,14 -90,27 -134,43 -105,37 -213,82 -329,140 -223,111 -430,250 -616,414 -94,82 -185,177 -273,281 -87,104 -165,218 -232,338l-55 109c-14,27 -27,55 -38,84l-19 48c-8,18 -15,35 -20,52l-33 99c-32,111 -72,259 -89,417 -19,160 -20,318 -5,468 17,177 58,352 122,518 139,365 391,700 707,943 87,69 182,129 265,179 83,47 183,100 289,143 91,39 190,73 315,108l41 10c18,5 36,10 55,14 -181,48 -385,101 -593,148 -152,38 -307,70 -458,102l-125 26c-62,14 -125,25 -187,36 -35,6 -70,12 -104,19 -35,6 -69,12 -104,18 -63,12 -125,24 -188,32l-153 23c-142,21 -289,43 -434,56l-107 12c-62,7 -124,14 -186,19l-347 24c-31,2 -62,4 -92,5l-439 11 -296 -2c-98,0 -196,-1 -294,-4l-292 -6 -578 -31c-35,-3 -69,-5 -103,-7 -62,-5 -122,-9 -184,-16 -382,-35 -753,-95 -1104,-176l-167 -42c-32,-8 -64,-16 -96,-27l-258 -79 -255 -95c-41,-14 -81,-32 -121,-50l-121 -54c-16,-7 -31,-13 -46,-20 -25,-11 -50,-21 -74,-34l-155 -80c-68,-35 -131,-68 -194,-107 -28,-17 -56,-33 -84,-50 -47,-28 -95,-55 -140,-85l-219 -147c-33,-21 -64,-44 -104,-74l-209 -156c-21,-16 -42,-34 -63,-51l-234 -192c-20,-17 -39,-34 -58,-51l-41 -37c-27,-25 -54,-49 -81,-77l-86 -85c-17,-18 -34,-37 -51,-56l-30 -33c-40,-41 -75,-85 -111,-129l-42 -51c-114,-146 -198,-268 -268,-386 -78,-124 -142,-251 -213,-402 -66,-153 -117,-282 -156,-415 -45,-139 -75,-281 -101,-410 -3,-25 -7,-50 -11,-74 -6,-44 -13,-88 -17,-131l-6 -61c-5,-47 -9,-93 -10,-141 -11,-258 11,-509 64,-748 50,-219 127,-430 230,-625 89,-168 197,-325 330,-482 123,-149 267,-273 389,-374l111 -84c16,-13 33,-24 50,-35l56 -38c27,-19 56,-35 85,-51l137 -73c154,-76 317,-136 481,-178 176,-45 347,-76 507,-91 334,-33 674,-20 1013,37 178,30 336,67 485,112 61,17 120,38 179,58l53 18c24,8 47,18 70,27l56 23c32,12 64,25 97,41 590,255 1073,661 1358,1142l130 257 63 165c3,10 5,19 8,28l33 115c4,20 8,39 12,59l17 87c2,9 3,19 4,29l21 256 -16 254c-1,10 -2,19 -3,26l-24 135 -76 256 -34 82 -74 153c-8,15 -17,29 -26,44l-17 29c-20,35 -43,68 -66,100l-24 33c-115,159 -260,295 -431,407 -146,94 -303,161 -468,200 -153,34 -298,46 -431,35l-20 0c-10,-1 -19,-1 -26,-2l-30 -4c214,-145 350,-399 350,-674 0,-443 -342,-803 -761,-803 -420,0 -761,360 -761,803 0,388 260,717 620,788l190 100c43,19 91,37 141,55l202 58c13,3 27,5 40,7l17 3c162,33 341,36 532,11 211,-29 416,-97 609,-203 224,-123 419,-285 579,-480l24 -30c34,-43 69,-86 100,-134l18 -28c14,-19 27,-39 41,-61l60 -106c7,-11 13,-22 20,-35l65 -137 67 -170c5,-12 8,-25 12,-37l40 -129c6,-27 12,-55 18,-82l21 -91c2,-13 4,-27 6,-40l20 -141 13 -184 -1 -187 -12 -143c-1,-15 -3,-30 -5,-47l-16 -99c-4,-29 -9,-59 -15,-91l-36 -145c-3,-15 -7,-29 -11,-45l-62 -187 -30 -71 -136 -288c-73,-128 -174,-293 -298,-441 -41,-53 -85,-102 -129,-149l-51 -56c-21,-22 -43,-42 -64,-63l-32 -31c-33,-33 -67,-65 -102,-94l-104 -89 -107 -83 -226 -159 -276 -160c-27,-15 -55,-30 -84,-45l-123 -59c-38,-19 -77,-36 -116,-52l-57 -24c-29,-12 -57,-24 -87,-35l-44 -17c-72,-26 -146,-54 -221,-76 -170,-55 -351,-100 -554,-138 -391,-72 -786,-91 -1174,-58 -194,17 -397,51 -605,104 -205,51 -407,124 -600,218l-169 88c-41,23 -82,46 -120,73l-69 45c-24,16 -49,32 -70,49l-130 98c-139,114 -321,270 -481,462 -164,192 -304,398 -415,611 -131,249 -229,518 -290,799 -135,614 -96,1299 109,1927 54,176 126,347 190,492 69,144 154,312 256,472 85,140 186,282 320,449l45 54c43,52 89,106 137,156l32 34c21,23 42,46 65,68l99 97c32,33 67,63 106,97l35 31c24,21 47,42 72,62l251 201c24,19 47,39 72,57l233 169c36,26 72,53 117,81l230 149c53,34 107,65 162,96 29,16 57,32 85,49 73,44 150,82 225,119l163 82c29,15 60,27 90,40 15,6 30,13 46,20l134 57c46,20 93,39 139,55l280 99 281 82c37,12 75,21 113,29l179 42c376,82 773,139 1180,171 65,5 129,9 194,13 35,1 70,3 105,6l150 8 748 15c100,1 201,1 301,-1l759 -23c33,-1 66,-4 100,-7l359 -32c67,-6 133,-15 199,-23l105 -14c153,-17 307,-42 455,-67l153 -25c66,-11 131,-24 197,-37 35,-7 69,-14 105,-21 35,-8 70,-14 105,-21 66,-13 131,-26 196,-41l121 -28c156,-36 317,-72 473,-114 389,-97 776,-213 1171,-332 425,-133 798,-255 1142,-373 285,-97 567,-194 847,-291l267 -93c321,-112 638,-219 952,-326l137 -46c58,-20 115,-40 172,-59l-39 38c-11,11 -22,22 -33,34l-15 15c-24,26 -47,53 -70,80l-22 26c-66,82 -116,152 -158,221 -52,79 -94,163 -129,235 -32,72 -69,157 -95,242 -104,313 -124,654 -58,960 30,141 78,275 143,400 55,106 125,209 206,305 62,75 136,147 240,232l62 47c11,10 24,18 36,26l33 22c20,14 42,26 63,38l83 44c96,47 197,84 299,110 103,27 204,45 301,53 64,6 128,9 193,9 130,0 260,-12 390,-35 100,-18 190,-40 274,-67 37,-11 74,-24 110,-37l23 -9c15,-5 29,-11 44,-17l27 -12c20,-8 40,-16 58,-25l62 -30c14,-7 28,-14 42,-22l194 -117 160 -125c18,-15 36,-31 52,-47l16 -15c11,-11 22,-21 34,-33l24 -27c23,-24 45,-48 63,-72 64,-76 114,-158 152,-224l76 -161 63 -206c2,-15 5,-30 7,-45l18 -241 -16 -160 -42 -171 -112 -246c-7,-11 -14,-21 -20,-31l-8 -12c-16,-25 -34,-47 -52,-69l-11 -15c-80,-99 -178,-181 -291,-243 -98,-54 -201,-89 -308,-104 -96,-14 -187,-12 -276,5 -7,1 -15,3 -25,5l-100 28c-25,9 -49,18 -74,29l-90 46c-187,39 -322,210 -323,412 -1,232 178,422 400,423 0,0 1,0 1,0 107,0 208,-44 284,-123 75,-80 117,-185 117,-297 1,-118 -47,-229 -126,-308 52,-1 110,5 170,19 78,19 152,51 220,96 81,53 150,118 203,192l12 17c10,15 21,30 31,48l9 14c4,7 8,13 11,19l23 46 42 107 29 124 13 152 -3 50 -40 214 -96 212c-138,231 -371,425 -657,548 -16,7 -31,13 -52,21l-20 8c-11,4 -23,9 -34,13l-26 9c-29,10 -57,19 -88,28 -71,21 -147,38 -233,52 -164,27 -329,33 -490,16 -77,-7 -159,-22 -244,-45 -78,-20 -156,-49 -230,-86l-66 -36c-13,-7 -26,-14 -40,-24l-28 -18c-7,-5 -14,-10 -23,-17l-51 -40c-60,-49 -129,-109 -188,-181 -63,-75 -115,-151 -157,-232 -49,-93 -86,-194 -109,-300 -26,-114 -35,-235 -29,-361 0,-22 2,-44 4,-66l3 -30c2,-21 6,-42 9,-63l5 -33c13,-64 28,-133 50,-201 19,-63 44,-125 75,-197 35,-74 67,-136 105,-196 33,-56 74,-115 128,-183l22 -27c17,-21 34,-41 54,-61l14 -17c8,-9 17,-18 24,-26l44 -43c12,-12 25,-23 41,-38l160 -133c10,-8 20,-16 30,-24l104 -77c16,-12 31,-23 49,-34l106 -71c23,-15 46,-28 69,-41l42 -25c29,-19 61,-34 92,-50l77 -40c11,-6 23,-11 34,-15l83 -37c19,-8 37,-16 58,-23l103 -38 11 -6c65,-43 139,-85 223,-128l23 -7c117,-38 233,-75 349,-110 315,-95 647,-184 986,-263 295,-69 605,-125 945,-171 631,-76 1210,-73 1719,9 272,43 517,106 726,187 231,90 420,204 562,339 76,73 138,151 183,230 45,77 79,164 102,256l14 68c3,12 4,25 5,37l3 27c6,37 8,77 7,123 -2,78 -12,157 -32,233 -35,135 -96,258 -172,346 -85,99 -171,133 -215,144 -65,17 -118,12 -157,6 -17,-2 -30,-5 -40,-7 -46,-9 -75,3 -83,34 -6,19 -9,53 50,78 12,4 28,11 48,16 71,19 141,22 212,8 105,-19 211,-81 297,-174 98,-103 175,-243 223,-403 27,-89 43,-181 48,-274 3,-56 2,-105 -3,-152l-2 -23z"/>
   <path class="fil0" d="M24590 5708c16,-81 -73,-103 -191,-73 -231,57 -471,-89 -676,-236 -54,-38 -106,-72 -152,-106l735 0c256,0 229,-441 0,-441l-365 0c150,-483 378,-708 723,-967 235,-176 603,-192 779,103 44,73 62,363 -88,602 -74,118 221,270 500,251 647,-44 882,-780 867,-1148 -37,-942 -897,-1470 -1529,-1308 -754,193 -1236,1103 -1338,1382 -132,357 -241,725 -263,1085l-241 0c-59,-629 150,-1468 475,-2467 367,-1133 -441,-2385 -755,-2385 -314,0 -1122,1252 -755,2385 324,999 534,1838 474,2467l-240 0c-22,-360 -132,-728 -263,-1085 -103,-279 -585,-1189 -1338,-1382 -633,-162 -1492,366 -1529,1308 -16,368 219,1104 867,1148 279,19 573,-133 499,-251 -149,-239 -131,-529 -88,-602 177,-295 545,-279 780,-103 345,259 573,484 723,967l-366 0c-229,0 -256,441 0,441l736 0c-47,34 -98,68 -152,106 -206,147 -445,293 -676,236 -118,-30 -207,-8 -192,73 118,647 839,573 1030,324 -236,279 323,1026 490,1026 167,0 725,-747 490,-1026 191,249 912,323 1029,-324z"/>
  </g>
 </g>
</svg>
